<?xml version="1.0" encoding="UTF-8"?>
<svg data-bbox="14.71 1.71 1170.57 668.46" viewBox="0 0 1200 676.97" xmlns="http://www.w3.org/2000/svg" data-type="color">
    <g>
        <path d="M95.85 469.36c-1.1-1.91-2.36-3.4-3.81-4.52-1.45-1.08-3.24-1.63-5.33-1.63-2.11 0-3.9.55-5.4 1.63-1.52 1.13-2.8 2.62-3.9 4.52l-62.7 104.37h21.74l49.5-83.69 24.29 40.8H76.82l-9 15.45h51.59l16.35 27.44h22.94z" fill="#ffffff" data-color="1"/>
        <path d="M260.08 464.7v60.89c0 5.51-.67 10.2-2.02 14.1s-3.56 7.1-6.61 9.6c-3.03 2.5-7.12 4.34-12.21 5.49-5.1 1.15-11.39 1.72-18.9 1.72s-13.8-.57-18.9-1.72-9.18-2.99-12.21-5.49c-3.05-2.5-5.26-5.69-6.61-9.6-1.35-3.9-2.02-8.59-2.02-14.1V464.7h-19.65v60.89c0 8.4 1.1 15.73 3.31 21.97 2.2 6.24 5.65 11.43 10.35 15.52 4.68 4.11 10.77 7.16 18.21 9.16 7.46 2 16.44 2.98 26.93 2.98 10.58 0 19.63-.99 27.07-2.98 7.44-2 13.52-5.05 18.23-9.16 4.68-4.09 8.15-9.28 10.33-15.52 2.2-6.25 3.31-13.57 3.31-21.97V464.7z" fill="#ffffff" data-color="1"/>
        <path d="M290.99 464.7v19.06h41.4v89.98h19.03v-89.98h41.4V464.7z" fill="#ffffff" data-color="1"/>
        <path d="M505.18 469.82c-.92-.44-1.84-.85-2.8-1.22-6.54-2.59-13.78-3.9-21.67-3.9h-26.54c-7.6 0-14.63 1.26-21.08 3.83-6.45 2.55-12.05 6.13-16.81 10.79-4.75 4.64-8.45 10.26-11.09 16.88-2.64 6.59-3.97 13.89-3.97 21.88 0 7.92 1.33 15.27 3.97 22.06 2.11 5.44 4.91 10.31 8.4 14.56.32.41.67.8.99 1.19l13.91-12.9c-.34-.39-.67-.8-.96-1.22-1.93-2.5-3.51-5.35-4.73-8.54-1.7-4.38-2.55-9.14-2.55-14.23 0-5.21.85-9.97 2.55-14.26s4.06-7.99 7.05-11.09c3.01-3.1 6.59-5.53 10.75-7.28 4.13-1.75 8.66-2.62 13.57-2.62h26.54c2.96 0 5.76.3 8.43.92.6.14 1.22.28 1.79.46h.02l15.73-14.58c-.52-.25-1-.5-1.5-.73m25.02 26.61c-2.14-5.37-4.98-10.1-8.52-14.21-.02-.05-.07-.07-.09-.12l-14.51 13.43c.02.05.07.07.09.12 2.2 2.66 3.97 5.72 5.33 9.16q2.55 6.54 2.55 14.19c0 5.1-.85 9.85-2.55 14.23-1.7 4.41-4.09 8.17-7.14 11.32-3.03 3.17-6.66 5.63-10.86 7.44-4.2 1.79-8.79 2.69-13.8 2.69h-26.54c-3.31 0-6.43-.41-9.37-1.24-.05-.02-.11-.02-.16-.05l-15.34 14.21c.05.02.09.05.14.07 1.17.64 2.41 1.24 3.65 1.79 6.45 2.85 13.48 4.27 21.08 4.27h26.54c7.81 0 14.95-1.42 21.44-4.27 6.5-2.85 12.12-6.75 16.88-11.71 4.75-4.94 8.45-10.81 11.09-17.61 2.66-6.8 3.97-14.14 3.97-22.06 0-7.87-1.28-15.1-3.88-21.65" fill="#ffffff" data-color="1"/>
        <path d="M671.77 471.15c-1.49-5.19-4.55-7.81-9.16-7.81-4.29 0-7.35 2.16-9.14 6.45l-33.59 77.1-33.59-77.1c-.92-2.09-2.23-3.7-4-4.8-1.74-1.1-3.6-1.65-5.6-1.65-5.01 0-8.15 2.62-9.46 7.81l-28.06 102.58h18.76l20.85-76.64 30.74 70.94c2 4.8 5.26 7.19 9.76 7.19q3.45 0 5.76-1.86c1.56-1.26 2.87-3.03 3.97-5.33l30.9-70.94 20.85 76.64h18.9z" fill="#ffffff" data-color="1"/>
        <path d="M787.56 469.36c-1.1-1.91-2.39-3.4-3.83-4.52-1.45-1.08-3.21-1.63-5.33-1.63-2.09 0-3.9.55-5.4 1.63-1.49 1.13-2.8 2.62-3.9 4.52l-62.68 104.37h21.74l49.5-83.69 24.29 40.8H768.5l-9 15.45h51.59l16.35 27.44h22.96z" fill="#ffffff" data-color="1"/>
        <path d="M837.79 464.7v19.06h41.4v89.98h19.06v-89.98h41.4V464.7z" fill="#ffffff" data-color="1"/>
        <path d="M972.61 554.68v-70.92h78.45V464.7h-97.35v109.03h97.49v-19.06h-78.59zm13.96-44.38v16.05H1047V510.3z" fill="#ffffff" data-color="1"/>
        <path d="M1181.31 496.43c-2.64-6.57-6.31-12.19-11.02-16.88-4.71-4.71-10.31-8.36-16.81-10.95s-13.59-3.9-21.28-3.9h-63.14v109.03h18.9v-89.98h44.24c4.89 0 9.41.87 13.57 2.62 4.16 1.74 7.74 4.18 10.79 7.28s5.42 6.82 7.14 11.16q2.55 6.54 2.55 14.19c0 5.1-.85 9.85-2.55 14.23-1.72 4.41-4.09 8.17-7.14 11.32-3.05 3.17-6.64 5.63-10.79 7.44-4.16 1.79-8.68 2.69-13.57 2.69h-32.37v19.06h32.37c7.69 0 14.79-1.42 21.28-4.27 6.5-2.85 12.1-6.75 16.81-11.71 4.71-4.94 8.38-10.81 11.02-17.61s3.97-14.14 3.97-22.06c.01-7.88-1.33-15.11-3.97-21.66" fill="#ffffff" data-color="1"/>
        <path d="M318.85 655.54c.97-2.38 1.45-4.93 1.45-7.66 0-1.92-.24-3.78-.75-5.53-.53-1.76-1.25-3.43-2.16-4.97-.92-1.5-2.03-2.91-3.32-4.18-1.28-1.25-2.73-2.31-4.33-3.21-1.58-.9-3.3-1.58-5.11-2.09-1.83-.48-3.78-.71-5.77-.71-2 0-3.9.24-5.74.71-1.83.51-3.56 1.17-5.13 2.07-1.59.9-3.04 1.94-4.33 3.21a20.3 20.3 0 0 0-3.34 4.18c-.92 1.54-1.65 3.23-2.14 4.99-.51 1.76-.77 3.61-.77 5.53s.26 3.79.77 5.57c.49 1.78 1.23 3.45 2.14 4.99.92 1.56 2.03 2.97 3.34 4.23 1.28 1.26 2.73 2.33 4.33 3.26 1.58.88 3.3 1.59 5.13 2.09 1.83.49 3.74.75 5.74.75 2.42 0 4.71-.37 6.85-1.08 1.26-.38 2.42-.9 3.56-1.52l-3.46-3.28c-.62.29-1.28.59-1.96.81-1.56.53-3.21.79-4.95.79-2.24 0-4.36-.44-6.34-1.32-2-.84-3.74-2.03-5.24-3.54q-2.22-2.25-3.54-5.28c-.86-2.02-1.3-4.18-1.3-6.47 0-2.27.44-4.42 1.3-6.41.88-2 2.05-3.74 3.54-5.2 1.5-1.48 3.24-2.66 5.24-3.54 1.98-.84 4.11-1.28 6.34-1.28 2.24 0 4.36.44 6.32 1.28 1.98.88 3.7 2.05 5.17 3.54 1.5 1.47 2.66 3.21 3.52 5.2.84 2 1.28 4.14 1.28 6.41 0 2.07-.35 4.01-1.03 5.83-.68 1.8-1.61 3.43-2.82 4.88l-8.69-8.16-2.91 3.1 3.89 3.65 4.56 4.33 3.39 3.23h.04l5.74 5.43 2.95-3.12-5.46-5.15c1.69-1.87 3.05-3.99 4-6.36" fill="#ffffff" data-color="1"/>
        <path d="M359.21 627.52v24.21c0 2.03-.29 3.81-.84 5.41-.55 1.58-1.36 2.91-2.4 4-1.03 1.08-2.29 1.91-3.81 2.47-1.48.57-3.19.88-5.08.88s-3.57-.31-5.1-.88c-1.52-.57-2.79-1.39-3.83-2.47-1.06-1.1-1.87-2.44-2.44-4.01-.55-1.58-.84-3.35-.84-5.39v-24.21h-4.99v24.21c0 2.69.38 5.06 1.17 7.17.79 2.13 1.92 3.89 3.39 5.35 1.47 1.45 3.26 2.57 5.39 3.35 2.14.79 4.55 1.17 7.24 1.17 2.66 0 5.06-.38 7.17-1.17s3.9-1.91 5.37-3.35c1.47-1.47 2.6-3.23 3.37-5.35.79-2.11 1.17-4.47 1.17-7.17v-24.21h-4.94z" fill="#ffffff" data-color="1"/>
        <path d="M394.6 627.52h-5.13l-18.31 40.87h5.26l3.5-8.03 1.04-2.42 1.83-4.31 1.04-2.42 8.03-18.62 9.18 21.04h-14.68l-1.83 4.31h18.38l4.56 10.45h5.33z" fill="#ffffff" data-color="1"/>
        <path d="M426.58 664.07v-36.55h-5v40.87h22.89v-4.33h-17.89z" fill="#ffffff" data-color="1"/>
        <path d="M454.42 627.52v40.87h4.97v-40.87z" fill="#ffffff" data-color="1"/>
        <path d="M468.53 627.52v4.31h13.29v36.56h4.97v-36.56h13.34v-4.31z" fill="#ffffff" data-color="1"/>
        <path d="m533.91 627.52-12.85 21.46-13.07-21.46h-5.11l15.73 26.63v14.24h4.97v-14.42l15.47-26.45z" fill="#ffffff" data-color="1"/>
        <path d="M601.26 652.72c-.66-1.28-1.52-2.35-2.6-3.23-1.06-.88-2.29-1.59-3.67-2.16-1.36-.55-2.75-1.06-4.18-1.52-1.43-.44-2.82-.86-4.2-1.3-1.37-.44-2.6-.97-3.65-1.56-1.08-.62-1.96-1.39-2.6-2.25-.64-.9-.99-2-.99-3.35 0-1.1.27-2.02.81-2.79.55-.73 1.21-1.32 2.05-1.76s1.74-.73 2.73-.92c1.01-.17 1.94-.26 2.84-.26 1.94 0 3.94.29 5.94.92 2 .62 3.81 1.45 5.48 2.51l2.11-4.18c-.95-.62-1.96-1.17-3.01-1.63-1.08-.49-2.18-.88-3.32-1.19-1.12-.33-2.27-.59-3.41-.75-1.17-.15-2.33-.24-3.45-.24-1.08 0-2.2.09-3.34.24-1.12.16-2.22.44-3.28.79s-2.07.81-2.99 1.37c-.93.55-1.76 1.25-2.46 2.02s-1.25 1.69-1.63 2.71c-.38 1.04-.59 2.18-.59 3.46 0 1.87.31 3.41.97 4.67a10 10 0 0 0 2.58 3.17c1.08.84 2.29 1.56 3.67 2.11a75 75 0 0 0 4.2 1.48c1.43.44 2.84.88 4.22 1.32 1.37.4 2.58.93 3.67 1.56 1.06.64 1.92 1.39 2.57 2.29.68.92.99 2.07.99 3.45 0 1.25-.29 2.27-.86 3.12-.6.84-1.34 1.5-2.24 2-.92.51-1.92.86-3.02 1.08s-2.18.33-3.23.33c-1.23 0-2.49-.16-3.74-.44-1.23-.27-2.46-.7-3.63-1.19-1.14-.53-2.27-1.15-3.32-1.87-1.06-.7-2.05-1.5-2.91-2.36l-2.25 4.07c1.04.99 2.2 1.89 3.41 2.66 1.25.79 2.53 1.43 3.89 1.98 1.36.53 2.73.95 4.18 1.23 1.45.27 2.9.4 4.33.4 1.74 0 3.48-.2 5.26-.59 1.78-.42 3.37-1.08 4.82-1.98 1.41-.92 2.58-2.07 3.48-3.5.9-1.41 1.34-3.13 1.34-5.15 0-1.91-.33-3.5-.97-4.77" fill="#ffffff" data-color="1"/>
        <path d="M642.59 629.96c-1.61-.9-3.3-1.59-5.15-2.07-1.81-.49-3.74-.73-5.74-.73s-3.9.24-5.74.73c-1.83.48-3.56 1.17-5.15 2.07-1.58.88-3.02 1.96-4.31 3.23a19.7 19.7 0 0 0-3.34 4.18c-.93 1.52-1.65 3.19-2.14 4.97-.51 1.78-.77 3.63-.77 5.55s.26 3.79.77 5.57c.49 1.78 1.21 3.45 2.14 4.99.64 1.1 1.37 2.11 2.24 3.06l3.41-3.43c-.46-.57-.86-1.17-1.23-1.8-.71-1.23-1.26-2.57-1.69-4-.38-1.39-.59-2.88-.59-4.4 0-2.27.44-4.42 1.3-6.41.86-2 2.05-3.74 3.54-5.2 1.47-1.48 3.21-2.66 5.2-3.54 2-.84 4.12-1.28 6.36-1.28s4.36.44 6.34 1.28c1.41.62 2.68 1.37 3.81 2.29l3.34-3.32c-.81-.64-1.69-1.23-2.6-1.74m9.78 12.39c-.51-1.76-1.23-3.45-2.14-4.99-.53-.86-1.1-1.67-1.74-2.46l-3.46 3.46c.68.95 1.26 1.98 1.74 3.1.84 2 1.28 4.14 1.28 6.41 0 2.29-.44 4.45-1.28 6.47s-2.02 3.78-3.52 5.28c-1.47 1.5-3.21 2.69-5.19 3.54-1.98.88-4.11 1.32-6.34 1.32-1.47 0-2.91-.22-4.31-.6-1.37-.4-2.69-.97-3.9-1.67-.48-.27-.93-.6-1.39-.93l-3.32 3.32c.64.48 1.32.92 2.02 1.34 1.59.88 3.32 1.59 5.15 2.09 1.83.49 3.74.75 5.74.75s3.92-.26 5.74-.75c1.85-.49 3.54-1.21 5.15-2.09 1.58-.93 3.01-2 4.33-3.26a21.7 21.7 0 0 0 3.32-4.23c.92-1.54 1.63-3.21 2.14-4.99.49-1.78.75-3.65.75-5.57s-.27-3.78-.77-5.54" fill="#ffffff" data-color="1"/>
        <path d="M668.96 664.07v-36.55h-5v40.87h22.93v-4.33h-17.93z" fill="#ffffff" data-color="1"/>
        <path d="M724.59 627.52v24.21c0 2.03-.29 3.81-.84 5.41-.57 1.58-1.36 2.91-2.4 4-1.03 1.08-2.33 1.91-3.81 2.47-1.5.57-3.19.88-5.08.88s-3.57-.31-5.1-.88c-1.52-.57-2.8-1.39-3.83-2.47-1.06-1.1-1.87-2.44-2.44-4.01-.57-1.58-.84-3.35-.84-5.39v-24.21h-4.99v24.21c0 2.69.38 5.06 1.17 7.17.77 2.13 1.92 3.89 3.39 5.35 1.47 1.45 3.26 2.57 5.39 3.35 2.14.79 4.55 1.17 7.24 1.17 2.66 0 5.06-.38 7.17-1.17s3.9-1.91 5.37-3.35c1.47-1.47 2.6-3.23 3.37-5.35.79-2.11 1.17-4.47 1.17-7.17v-24.21h-4.94z" fill="#ffffff" data-color="1"/>
        <path d="M737.05 627.52v4.31h13.29v36.56h4.97v-36.56h13.31v-4.31z" fill="#ffffff" data-color="1"/>
        <path d="M777.75 627.52v40.87h5v-40.87z" fill="#ffffff" data-color="1"/>
        <path d="M825.9 629.96c-1.59-.9-3.28-1.59-5.13-2.07-1.83-.49-3.74-.73-5.75-.73-1.98 0-3.9.24-5.74.73-1.83.48-3.54 1.17-5.15 2.07-1.58.88-3.01 1.96-4.31 3.23-1.28 1.26-2.42 2.64-3.34 4.18-.92 1.52-1.63 3.19-2.13 4.97-.51 1.78-.77 3.63-.77 5.55s.26 3.79.77 5.57c.49 1.78 1.21 3.45 2.13 4.99a19.4 19.4 0 0 0 1.69 2.42l3.46-3.46c-.26-.35-.49-.75-.71-1.12-.73-1.23-1.28-2.57-1.69-4-.4-1.39-.59-2.88-.59-4.4 0-2.27.4-4.42 1.28-6.41.88-2 2.03-3.74 3.54-5.2 1.48-1.48 3.24-2.66 5.24-3.54 2-.84 4.11-1.28 6.36-1.28 2.22 0 4.33.44 6.32 1.28a16.4 16.4 0 0 1 3.1 1.78l3.34-3.34c-.62-.45-1.26-.86-1.92-1.22m9.81 12.39c-.51-1.76-1.23-3.45-2.16-4.99-.66-1.12-1.43-2.16-2.29-3.12l-3.43 3.41c.9 1.15 1.65 2.42 2.27 3.81.84 2 1.28 4.14 1.28 6.41 0 2.29-.44 4.45-1.28 6.47-.88 2.02-2.03 3.78-3.52 5.28-1.47 1.5-3.21 2.69-5.19 3.54-2 .88-4.11 1.32-6.32 1.32-1.5 0-2.93-.22-4.33-.6-1.39-.4-2.69-.97-3.92-1.67-.73-.44-1.45-.93-2.09-1.45l-3.32 3.3c.86.7 1.76 1.32 2.71 1.87 1.61.88 3.32 1.59 5.15 2.09 1.83.49 3.76.75 5.74.75 2.02 0 3.92-.26 5.75-.75 1.85-.49 3.54-1.21 5.13-2.09 1.58-.93 3.02-2 4.31-3.26 1.32-1.26 2.42-2.68 3.34-4.23.93-1.54 1.65-3.21 2.16-4.99.49-1.78.75-3.65.75-5.57s-.25-3.77-.74-5.53" fill="#ffffff" data-color="1"/>
        <path d="M876.61 627.52v33.25l-24.19-33.25h-5.13v40.87h4.99v-33.14l24.14 33.14h5.11v-40.87z" fill="#ffffff" data-color="1"/>
        <path d="M921.61 652.72c-.66-1.28-1.5-2.35-2.58-3.23s-2.29-1.59-3.68-2.16a57 57 0 0 0-4.18-1.52c-1.41-.44-2.82-.86-4.2-1.3-1.36-.44-2.58-.97-3.65-1.56a8.7 8.7 0 0 1-2.6-2.25c-.64-.9-.95-2-.95-3.35 0-1.1.26-2.02.77-2.79.57-.73 1.23-1.32 2.07-1.76.81-.44 1.72-.73 2.71-.92 1.01-.17 1.96-.26 2.84-.26 1.96 0 3.96.29 5.96.92 2 .62 3.81 1.45 5.46 2.51l2.11-4.18c-.93-.62-1.94-1.17-3.01-1.63-1.08-.49-2.18-.88-3.3-1.19-1.14-.33-2.27-.59-3.43-.75-1.17-.15-2.31-.24-3.45-.24-1.08 0-2.2.09-3.34.24-1.12.16-2.22.44-3.28.79-1.04.35-2.05.81-2.97 1.37-.95.55-1.76 1.25-2.47 2.02-.68.77-1.21 1.69-1.61 2.71-.4 1.04-.6 2.18-.6 3.46 0 1.87.31 3.41.99 4.67a9.8 9.8 0 0 0 2.57 3.17c1.08.84 2.29 1.56 3.68 2.11 1.37.53 2.77 1.03 4.2 1.48 1.41.44 2.82.88 4.2 1.32 1.37.4 2.6.93 3.68 1.56 1.06.64 1.92 1.39 2.58 2.29.64.92.97 2.07.97 3.45 0 1.25-.31 2.27-.88 3.12-.59.84-1.34 1.5-2.22 2-.93.51-1.94.86-3.04 1.08s-2.18.33-3.21.33c-1.25 0-2.51-.16-3.74-.44-1.25-.27-2.46-.7-3.63-1.19-1.15-.53-2.27-1.15-3.34-1.87-1.06-.7-2.03-1.5-2.91-2.36l-2.25 4.07c1.06.99 2.2 1.89 3.43 2.66 1.23.79 2.53 1.43 3.89 1.98 1.34.53 2.73.95 4.18 1.23 1.43.27 2.88.4 4.33.4 1.72 0 3.46-.2 5.24-.59 1.8-.42 3.37-1.08 4.82-1.98 1.43-.92 2.6-2.07 3.48-3.5.9-1.41 1.34-3.13 1.34-5.15-.01-1.91-.32-3.5-.98-4.77" fill="#ffffff" data-color="1"/>
        <path fill="#ffffff" d="m953.72 644.68 223.4 3.98-223.4 3.99z" data-color="1"/>
        <path fill="#ffffff" d="m239.2 644.68-223.4 3.98 223.4 3.99z" data-color="1"/>
        <path d="M800.32 295.83 635.84 13.12A22.97 22.97 0 0 0 616 1.71l-47.61.01 30.4 52.26 144.15 247.75H571.16l-31.23-56.95-60.77 109.39h.01l-.07.11h287.95c4 0 7.69-2.15 9.66-5.63l23.68-41.77c1.94-3.42 1.92-7.63-.07-11.05" fill="#ffffff" data-color="1"/>
        <path d="M600.22 258.22h60.81l-90.54-155.61-30.4-52.26-30.4 52.26-108.4 186.3a22.98 22.98 0 0 0-.13 22.86l23.5 41.48 29.98-51.53 85.44-146.85z" fill="#ffffff" data-color="1"/>
        <path fill="#ffffff" d="m316.15 669.07-4.57-4.34-3.4-3.23-4.57-4.32" data-color="1"/>
        <path fill="#ffffff" d="m379.92 660.36 1.04-2.42 1.83-4.3 1.05-2.42" data-color="1"/>
    </g>
</svg>
