<?xml version="1.0" encoding="UTF-8"?>
<svg data-bbox="5.997 4.4 1188.023 281.21" viewBox="0 0 1200 286" xmlns="http://www.w3.org/2000/svg" data-type="color">
    <g>
        <path d="M187.97 19.3a17.58 17.58 0 0 0-15.19-8.74l-36.45.01 23.28 40.01 110.37 189.69H138.45l-23.91-43.6L68 280.44h.01l-.05.09h220.48c3.06 0 5.88-1.65 7.39-4.31l18.13-31.98a8.51 8.51 0 0 0-.05-8.47z" fill="#ffffff" data-color="1"/>
        <path d="M160.7 206.97h46.56L137.93 87.83l-23.28-40.01-23.27 40.01-83 142.64a17.58 17.58 0 0 0-.1 17.5l18 31.76 22.95-39.46 65.42-112.44z" fill="#ffffff" data-color="1"/>
        <path fill="#ffffff" d="M374.99 4.4v281.21h-3.16V4.4z" data-color="1"/>
        <path d="M438.37 257.78c-.34-.25-.76-.38-1.26-.38s-.93.13-1.28.38c-.36.27-.65.63-.93 1.07l-14.89 24.81h5.16l11.77-19.88 5.77 9.69h-7.96l-2.13 3.67h12.26l3.88 6.53h5.45l-14.93-24.81c-.25-.45-.55-.8-.91-1.08" fill="#ffffff" data-color="1"/>
        <path d="M479.13 272.21c0 1.33-.17 2.44-.48 3.35-.32.95-.84 1.71-1.58 2.3-.72.59-1.69 1.03-2.89 1.31-1.22.27-2.72.4-4.51.4-1.77 0-3.26-.13-4.49-.4-1.2-.27-2.17-.72-2.91-1.31-.72-.59-1.24-1.35-1.56-2.3-.32-.91-.48-2.02-.48-3.35v-14.45h-4.68v14.45c0 2 .27 3.75.8 5.22a8.3 8.3 0 0 0 2.44 3.69c1.12.99 2.57 1.71 4.34 2.19 1.77.46 3.9.72 6.4.72 2.51 0 4.65-.25 6.42-.72 1.77-.49 3.22-1.2 4.34-2.19 1.1-.97 1.92-2.19 2.44-3.69.53-1.47.78-3.22.78-5.22v-14.45h-4.4v14.45z" fill="#ffffff" data-color="1"/>
        <path fill="#ffffff" d="M487.28 262.29h9.83v21.38h4.53v-21.38h9.84v-4.53h-24.2z" data-color="1"/>
        <path d="M542.33 261.28c-.17-.17-.36-.34-.55-.5l-3.33 3.33c.21.17.38.34.57.53.74.74 1.31 1.62 1.71 2.65s.61 2.15.61 3.37-.21 2.34-.61 3.39c-.4 1.03-.97 1.94-1.71 2.7-.72.74-1.58 1.33-2.57 1.75-1.01.44-2.08.65-3.29.65h-6.3c-1.05 0-2.04-.17-2.93-.53l-3.37 3.37c.4.23.84.46 1.29.65 1.54.7 3.2 1.03 5.01 1.03h6.3c1.85 0 3.56-.34 5.1-1.03 1.54-.67 2.88-1.6 4-2.78 1.14-1.18 2.02-2.57 2.65-4.17.61-1.62.93-3.37.93-5.24s-.29-3.6-.93-5.16c-.6-1.55-1.46-2.9-2.58-4.01" fill="#ffffff" data-color="1"/>
        <path d="M521.1 276.74a8.1 8.1 0 0 1-1.68-2.7c-.4-1.05-.61-2.17-.61-3.39 0-1.24.21-2.36.61-3.39.4-1.01.97-1.9 1.68-2.63.7-.74 1.56-1.31 2.55-1.73.97-.42 2.04-.61 3.22-.61h6.3c1.2 0 2.27.19 3.29.61.04.02.11.04.15.06l3.43-3.43c-.55-.34-1.12-.61-1.71-.84-1.56-.63-3.29-.93-5.16-.93h-6.3c-1.81 0-3.47.3-5.01.91s-2.87 1.45-3.98 2.57c-1.14 1.1-2.02 2.44-2.65 4s-.93 3.31-.93 5.2c0 1.87.3 3.62.93 5.24.63 1.6 1.52 2.99 2.65 4.17.3.32.61.61.95.88l3.2-3.2a5.4 5.4 0 0 1-.93-.79" fill="#ffffff" data-color="1"/>
        <path d="M577.21 257.42c-1.01 0-1.75.53-2.17 1.54l-7.98 18.32-7.98-18.32c-.21-.51-.53-.89-.95-1.14s-.86-.4-1.33-.4c-1.2 0-1.94.63-2.25 1.85l-6.65 24.39h4.44l4.95-18.22 7.31 16.85c.48 1.14 1.24 1.73 2.32 1.73.55 0 1.01-.17 1.37-.46.38-.3.69-.72.95-1.26l7.35-16.85 4.95 18.22h4.49l-6.64-24.39c-.35-1.22-1.08-1.86-2.18-1.86" fill="#ffffff" data-color="1"/>
        <path d="M606.8 257.78c-.34-.25-.76-.38-1.26-.38-.48 0-.93.13-1.29.38-.36.27-.65.63-.93 1.07l-14.89 24.81h5.16l11.77-19.88 5.77 9.69h-7.94l-2.15 3.67h12.26l3.88 6.53h5.45l-14.93-24.81c-.24-.45-.54-.8-.9-1.08" fill="#ffffff" data-color="1"/>
        <path fill="#ffffff" d="M620.47 262.29h9.84v21.38h4.53v-21.38h9.83v-4.53h-24.2z" data-color="1"/>
        <path fill="#ffffff" d="M670.99 268.59v3.81h-14.36v-3.81z" data-color="1"/>
        <path fill="#ffffff" d="M653.33 262.29h18.64v-4.53h-23.13v25.91h23.15v-4.53h-18.66z" data-color="1"/>
        <path d="M701.12 261.28c-1.12-1.12-2.46-1.98-4-2.59-1.54-.63-3.22-.93-5.06-.93h-15v25.91h4.49v-21.38h10.51c1.16 0 2.23.19 3.22.61s1.83.99 2.57 1.73c.72.74 1.29 1.62 1.69 2.65s.61 2.15.61 3.37-.21 2.34-.61 3.39c-.4 1.03-.97 1.94-1.69 2.7-.74.74-1.58 1.33-2.57 1.75-.99.44-2.06.65-3.22.65h-8v4.53h8c1.83 0 3.52-.34 5.06-1.03 1.54-.67 2.88-1.6 4-2.78s1.98-2.57 2.61-4.17c.63-1.62.95-3.37.95-5.24s-.32-3.6-.95-5.16c-.63-1.55-1.5-2.9-2.61-4.01" fill="#ffffff" data-color="1"/>
        <path d="M751.07 275.68c.63-1.6.95-3.35.95-5.24 0-1.87-.32-3.6-.93-5.16-.61-1.54-1.47-2.89-2.59-4-1.12-1.12-2.46-1.98-4.02-2.59-1.56-.63-3.26-.93-5.14-.93h-6.32c-1.79 0-3.47.3-4.99.91-1.54.61-2.86 1.45-4 2.57-1.12 1.1-2 2.44-2.63 4s-.95 3.31-.95 5.2c0 1.87.32 3.62.95 5.24.63 1.6 1.52 2.99 2.63 4.17 1.14 1.18 2.46 2.11 4 2.78 1.52.7 3.2 1.03 4.99 1.03h6.32c1.14 0 2.21-.15 3.26-.42.3-.08.57-.17.84-.27l-4.55-3.83h-5.88c-1.16 0-2.23-.21-3.22-.65a7.7 7.7 0 0 1-2.55-1.75c-.72-.76-1.26-1.66-1.66-2.7-.4-1.05-.61-2.17-.61-3.39 0-1.24.21-2.36.61-3.39.4-1.01.95-1.9 1.66-2.63.72-.74 1.56-1.31 2.55-1.73s2.06-.61 3.22-.61h6.32c1.18 0 2.27.19 3.26.61 1.01.42 1.87.99 2.59 1.73.74.74 1.28 1.62 1.68 2.65.42 1.03.61 2.15.61 3.37 0 1.31-.23 2.51-.7 3.6-.46 1.1-1.1 2.02-1.9 2.78l-4.82-4.06h-5.98l7.48 5.88 3.92 3.29 1.79 1.54h6.02l-4.89-3.79c1.17-1.19 2.05-2.6 2.68-4.21" fill="#ffffff" data-color="1"/>
        <path d="M780.03 272.21c0 1.33-.17 2.44-.48 3.35-.32.95-.84 1.71-1.56 2.3-.74.59-1.71 1.03-2.91 1.31-1.22.27-2.72.4-4.49.4-1.79 0-3.28-.13-4.51-.4-1.2-.27-2.17-.72-2.89-1.31-.74-.59-1.26-1.35-1.58-2.3-.32-.91-.48-2.02-.48-3.35v-14.45h-4.65v14.45c0 2 .25 3.75.78 5.22.53 1.5 1.35 2.72 2.47 3.69 1.1.99 2.55 1.71 4.32 2.19 1.77.46 3.9.72 6.4.72s4.65-.25 6.42-.72c1.77-.49 3.22-1.2 4.34-2.19 1.12-.97 1.94-2.19 2.44-3.69.53-1.47.8-3.22.8-5.22v-14.45h-4.42z" fill="#ffffff" data-color="1"/>
        <path d="M804.13 257.78c-.34-.25-.76-.38-1.26-.38-.48 0-.93.13-1.29.38-.36.27-.65.63-.93 1.07l-14.89 24.81h5.18l11.75-19.88 5.77 9.69h-7.94l-2.15 3.67h12.26l3.9 6.53h5.43l-14.91-24.81c-.27-.45-.56-.8-.92-1.08" fill="#ffffff" data-color="1"/>
        <path fill="#ffffff" d="M828.45 257.76h-4.52v25.91h21.94v-4.53h-17.42z" data-color="1"/>
        <path fill="#ffffff" d="M855.08 257.76v25.91h-4.53v-25.91z" data-color="1"/>
        <path fill="#ffffff" d="M859.46 262.29h9.83v21.38h4.53v-21.38h9.84v-4.53h-24.2z" data-color="1"/>
        <path fill="#ffffff" d="m902.21 269.68-10.09-11.92h-6.08l13.75 16.07v9.84h4.53v-9.84l13.79-16.07h-5.79z" data-color="1"/>
        <path d="M953.06 268.59H941.2c-1.01 0-1.79-.27-2.38-.82-.57-.55-.86-1.31-.86-2.32 0-.99.27-1.77.84-2.34.57-.55 1.39-.82 2.42-.82h18.62v-4.53h-18.62c-1.26 0-2.42.17-3.41.55-.99.36-1.83.86-2.51 1.52-.67.63-1.2 1.41-1.54 2.3-.34.88-.53 1.85-.53 2.91 0 1.07.19 2.04.57 2.95.36.91.88 1.68 1.56 2.34.67.65 1.52 1.16 2.51 1.54.97.36 2.09.55 3.29.55h11.9c1.22 0 2.15.27 2.8.84.65.55.97 1.39.97 2.51 0 1.01-.32 1.83-.97 2.46-.65.61-1.58.93-2.8.93h-19.42v4.53h19.42c1.35 0 2.53-.19 3.54-.59 1.01-.38 1.85-.91 2.53-1.58.65-.67 1.16-1.47 1.5-2.4q.48-1.395.48-3.03c0-2.51-.67-4.4-2.04-5.62-1.38-1.27-3.38-1.88-6.01-1.88" fill="#ffffff" data-color="1"/>
        <path d="M972.22 276.74c-.72-.76-1.26-1.66-1.66-2.7-.4-1.05-.61-2.17-.61-3.39 0-1.24.21-2.36.61-3.39.4-1.01.95-1.9 1.66-2.63.72-.74 1.56-1.31 2.55-1.73s2.06-.61 3.22-.61h6.32c1.18 0 2.27.19 3.26.61.08.04.15.06.23.11l3.43-3.41c-.57-.38-1.16-.65-1.79-.91-1.56-.63-3.26-.93-5.14-.93h-6.32c-1.79 0-3.47.3-4.99.91-1.54.61-2.86 1.45-4 2.57-1.12 1.1-2 2.44-2.63 4s-.95 3.31-.95 5.2c0 1.87.32 3.62.95 5.24.63 1.6 1.52 2.99 2.63 4.17.32.34.65.65 1.01.95l3.22-3.2c-.35-.25-.68-.55-1-.86" fill="#ffffff" data-color="1"/>
        <path d="M993.47 261.28a5 5 0 0 0-.48-.44l-3.33 3.33c.19.15.34.3.5.46.74.74 1.29 1.62 1.69 2.65.42 1.03.61 2.15.61 3.37s-.19 2.34-.61 3.39c-.4 1.03-.95 1.94-1.69 2.7-.72.74-1.58 1.33-2.59 1.75-.99.44-2.08.65-3.26.65h-6.32c-1.01 0-1.94-.17-2.82-.5l-3.39 3.39c.4.21.8.42 1.22.61 1.52.7 3.2 1.03 4.99 1.03h6.32c1.85 0 3.54-.34 5.1-1.03 1.54-.67 2.86-1.6 4-2.78s2-2.57 2.63-4.17c.63-1.62.95-3.37.95-5.24s-.32-3.6-.93-5.16c-.61-1.55-1.47-2.9-2.59-4.01" fill="#ffffff" data-color="1"/>
        <path fill="#ffffff" d="M1006.36 257.76h-4.53v25.91h21.95v-4.53h-17.42z" data-color="1"/>
        <path d="M1051.37 272.21c0 1.33-.17 2.44-.48 3.35-.32.95-.84 1.71-1.58 2.3-.72.59-1.68 1.03-2.89 1.31-1.22.27-2.72.4-4.51.4-1.77 0-3.27-.13-4.49-.4-1.2-.27-2.17-.72-2.91-1.31-.72-.59-1.24-1.35-1.56-2.3-.32-.91-.48-2.02-.48-3.35v-14.45h-4.68v14.45c0 2 .27 3.75.8 5.22.51 1.5 1.33 2.72 2.44 3.69 1.12.99 2.57 1.71 4.34 2.19 1.77.46 3.9.72 6.4.72 2.51 0 4.65-.25 6.42-.72 1.77-.49 3.22-1.2 4.34-2.19 1.12-.97 1.92-2.19 2.44-3.69.53-1.47.78-3.22.78-5.22v-14.45h-4.4v14.45z" fill="#ffffff" data-color="1"/>
        <path fill="#ffffff" d="M1059.52 262.29h9.84v21.38h4.53v-21.38h9.83v-4.53h-24.2z" data-color="1"/>
        <path fill="#ffffff" d="M1092.67 257.76v25.91h-4.53v-25.91z" data-color="1"/>
        <path d="M1104.64 276.74c-.72-.76-1.26-1.66-1.68-2.7-.4-1.05-.59-2.17-.59-3.39 0-1.24.19-2.36.59-3.39.42-1.01.97-1.9 1.68-2.63.72-.74 1.56-1.31 2.55-1.73s2.06-.61 3.22-.61h6.3c1.14 0 2.17.17 3.12.55l3.48-3.47c-.46-.25-.93-.48-1.43-.67-1.56-.63-3.27-.93-5.16-.93h-6.3c-1.81 0-3.48.3-5.01.91-1.52.61-2.86 1.45-3.98 2.57-1.14 1.1-2 2.44-2.63 4s-.95 3.31-.95 5.2c0 1.87.32 3.62.95 5.24.63 1.6 1.5 2.99 2.63 4.17.23.23.46.46.72.67l3.18-3.18c-.25-.19-.48-.4-.69-.61" fill="#ffffff" data-color="1"/>
        <path d="M1125.87 261.28c-.25-.25-.5-.48-.8-.72l-3.33 3.33c.3.23.57.46.84.74a7.8 7.8 0 0 1 1.68 2.65c.4 1.03.61 2.15.61 3.37s-.21 2.34-.61 3.39a8.4 8.4 0 0 1-1.68 2.7c-.74.74-1.6 1.33-2.59 1.75-.99.44-2.08.65-3.29.65h-6.3c-1.16 0-2.23-.21-3.22-.65h-.02l-3.33 3.33c.5.32 1.01.59 1.56.82 1.54.7 3.2 1.03 5.01 1.03h6.3c1.85 0 3.56-.34 5.1-1.03 1.56-.67 2.89-1.6 4.02-2.78 1.12-1.18 2-2.57 2.63-4.17.63-1.62.95-3.37.95-5.24s-.32-3.6-.93-5.16c-.62-1.55-1.49-2.9-2.6-4.01" fill="#ffffff" data-color="1"/>
        <path d="m1156.66 276.51-18.28-18.15c-.34-.32-.65-.57-.97-.72-.3-.13-.63-.21-.95-.21-.72 0-1.28.25-1.71.74-.4.48-.61 1.14-.61 1.98v23.53h4.3v-18.96l18.22 18.3c.63.65 1.33.97 2.06.97.67 0 1.2-.23 1.62-.72.42-.48.63-1.14.63-2v-23.72h-4.32v18.96z" fill="#ffffff" data-color="1"/>
        <path d="M1191.96 270.44c-1.37-1.24-3.37-1.85-6-1.85h-11.88c-.99 0-1.79-.27-2.36-.82-.59-.55-.88-1.31-.88-2.32 0-.99.29-1.77.86-2.34.57-.55 1.37-.82 2.42-.82h18.6v-4.53h-18.6c-1.29 0-2.42.17-3.41.55-1.01.36-1.85.86-2.53 1.52-.67.63-1.18 1.41-1.54 2.3q-.51 1.32-.51 2.91c0 1.07.19 2.04.55 2.95.38.91.88 1.68 1.58 2.34.67.65 1.5 1.16 2.49 1.54.99.36 2.08.55 3.31.55h11.9c1.2 0 2.13.27 2.78.84.65.55.99 1.39.99 2.51 0 1.01-.34 1.83-.99 2.46-.65.61-1.58.93-2.78.93h-19.42v4.53h19.42c1.35 0 2.53-.19 3.54-.59 1.01-.38 1.85-.91 2.51-1.58.67-.67 1.16-1.47 1.5-2.4q.51-1.395.51-3.03c-.02-2.53-.72-4.43-2.06-5.65" fill="#ffffff" data-color="1"/>
        <path d="m557.54 59.19 46.19 77.55h-63.56l-17.12 29.36h98.08l31.07 52.17h43.62L576.37 19.85c-2.11-3.6-4.53-6.47-7.29-8.55-2.74-2.11-6.13-3.14-10.11-3.14-4 0-7.41 1.03-10.26 3.14-2.87 2.09-5.33 4.95-7.41 8.55L422.13 218.27h41.32z" fill="#ffffff" data-color="1"/>
        <path d="M787.91 218.27h50.46c9.12 0 17.82-1.1 26.07-3.29.27-.06.55-.15.82-.23l-39.09-32.69H787.9c-9.33 0-17.92-1.71-25.8-5.14-7.9-3.41-14.68-8.13-20.39-14.11s-10.17-13.16-13.39-21.52c-3.24-8.36-4.84-17.38-4.84-27.08 0-9.88 1.6-18.91 4.84-27.09 3.22-8.17 7.69-15.21 13.39-21.08 5.71-5.9 12.49-10.51 20.39-13.84 7.88-3.33 16.47-4.99 25.8-4.99h50.46c9.5 0 18.24 1.66 26.22 4.99s14.87 7.94 20.66 13.84c5.81 5.88 10.32 12.97 13.54 21.23 3.24 8.28 4.84 17.25 4.84 26.94 0 10.47-1.85 20.05-5.56 28.79-3.69 8.76-8.78 16.17-15.25 22.24l-38.48-32.5h-47.89l59.86 47.05 31.36 26.22 14.26 12.26h48.19l-39.07-30.22c9.14-9.5 16.22-20.66 21.25-33.49s7.56-26.85 7.56-42.06c0-15.02-2.48-28.75-7.41-41.2-4.95-12.45-11.88-23.13-20.83-32.08-8.93-8.93-19.61-15.86-32.06-20.81-12.47-4.95-26.2-7.41-41.2-7.41h-50.46c-14.45 0-27.8 2.42-40.06 7.27-12.26 4.84-22.91 11.69-31.93 20.54-9.04 8.85-16.07 19.52-21.1 32.08-5.03 12.53-7.56 26.41-7.56 41.62 0 15.02 2.53 28.98 7.56 41.91s12.07 24.09 21.1 33.49c9.01 9.41 19.67 16.83 31.93 22.24 12.28 5.4 25.63 8.12 40.08 8.12" fill="#ffffff" data-color="1"/>
        <path d="M985.89 111.51c5.43 5.22 12.07 9.31 19.97 12.26 7.88 2.95 16.68 4.42 26.37 4.42h95.22c9.69 0 17.14 2.23 22.39 6.7 5.22 4.47 7.84 11.16 7.84 20.09 0 8.17-2.61 14.72-7.84 19.67-5.24 4.95-12.7 7.41-22.39 7.41H972.07v36.2h155.37c10.85 0 20.28-1.52 28.37-4.57 8.07-3.03 14.78-7.27 20.09-12.68 5.33-5.41 9.31-11.84 11.98-19.25 2.65-7.41 3.98-15.48 3.98-24.22 0-20.16-5.45-35.17-16.39-45.05-10.93-9.88-26.94-14.83-48.04-14.83h-94.92c-7.98 0-14.32-2.17-18.98-6.55-4.65-4.38-6.97-10.55-6.97-18.53s2.27-14.22 6.84-18.68c4.55-4.46 11.02-6.7 19.38-6.7h148.82V11h-148.82c-10.26 0-19.38 1.47-27.36 4.42s-14.68 6.99-20.11 12.11c-5.41 5.14-9.5 11.27-12.26 18.39-2.76 7.14-4.13 14.89-4.13 23.25 0 8.55 1.47 16.43 4.42 23.65 2.97 7.23 7.14 13.47 12.55 18.69" fill="#ffffff" data-color="1"/>
    </g>
</svg>
